<svg width="32" height="38" viewBox="0 0 32 38" fill="none" xmlns="http://www.w3.org/2000/svg">
<path d="M0.189474 31.9272L6.12926 28.1166C6.08 27.5791 6.06611 26.3661 6.34147 25.1661C6.66863 23.7394 7.32547 23.3147 7.26063 23.1834C7.13221 22.9254 7.04589 21.1162 6.89053 20.6948C6.75158 20.3194 6.64505 20.0129 6.64505 20.0129L5.91874 18.4697C5.65979 17.6738 5.45221 17.7409 5.94147 17.3326H7.98358L10.1204 19.996L11.4817 22.0463L13.9061 21.6258L17.3676 19.6891C17.3676 19.6891 21.1128 17.9398 22.4998 17.3326H25.7596C25.9145 17.9102 25.7794 18.4824 25.216 18.8961C24.7777 19.2162 23.1259 20.0066 22.3651 20.6644C21.6038 21.3222 16.9688 26.2018 16.9688 26.2018L13.7836 28.6735L10.8362 30.9852L5.96547 38C3.54189 37.0994 0.951579 34.3748 0.189474 31.9272ZM15.8876 0C16.7869 0 17.5158 0.7144 17.5158 1.59431C17.5158 2.47507 16.7878 3.1882 15.8876 3.1882C14.9886 3.1882 14.2598 2.47507 14.2598 1.59431C14.2598 0.7144 14.9886 0 15.8876 0ZM15.8876 3.34864C22.0682 3.34864 27.1373 8.00491 27.6349 13.9308H4.14021C4.63958 8.00491 9.70821 3.34864 15.8876 3.34864ZM0.955368 16.7048C0.428211 16.7048 0 16.2733 0 15.7417C0 15.2101 0.428211 14.7799 0.955368 14.7799H31.0442C31.5714 14.7799 32 15.2106 32 15.7417C32 16.2729 31.5714 16.7048 31.0442 16.7048H0.955368Z" fill="#FAB95B"/>
</svg>
