<svg width="149" height="32" viewBox="0 0 149 32" fill="none" xmlns="http://www.w3.org/2000/svg">
<path d="M22.544 15.648C22.752 15.648 22.912 15.744 23.024 15.936C23.152 16.128 23.216 16.392 23.216 16.728C23.216 17.352 23.064 17.848 22.76 18.216C21.992 19.144 21.216 19.864 20.432 20.376C19.648 20.872 18.72 21.12 17.648 21.12C16.608 21.12 15.72 20.84 14.984 20.28C14.264 19.72 13.576 18.76 12.92 17.4C12.392 16.312 11.976 15.512 11.672 15C11.368 14.472 11.064 14.096 10.76 13.872C10.472 13.648 10.112 13.512 9.68 13.464C9.616 13.8 9.432 14.856 9.128 16.632C9 17.432 8.92 17.92 8.888 18.096C8.728 19.072 8.408 19.824 7.928 20.352C7.448 20.864 6.72 21.12 5.744 21.12C4.672 21.12 3.72 20.808 2.888 20.184C2.072 19.544 1.44 18.664 0.992 17.544C0.544 16.408 0.32 15.12 0.32 13.68C0.32 10.992 0.784 8.672 1.712 6.72C2.656 4.768 3.968 3.28 5.648 2.256C7.344 1.216 9.296 0.696 11.504 0.696C13.04 0.696 14.328 0.927999 15.368 1.392C16.408 1.856 17.176 2.496 17.672 3.312C18.184 4.128 18.44 5.048 18.44 6.072C18.44 6.968 18.224 7.848 17.792 8.712C17.376 9.56 16.744 10.312 15.896 10.968C15.048 11.624 14.016 12.112 12.8 12.432C13.568 12.64 14.16 12.976 14.576 13.44C14.992 13.904 15.408 14.584 15.824 15.48C16.272 16.44 16.712 17.144 17.144 17.592C17.592 18.04 18.104 18.264 18.68 18.264C19.192 18.264 19.68 18.096 20.144 17.76C20.608 17.408 21.192 16.816 21.896 15.984C22.088 15.76 22.304 15.648 22.544 15.648ZM6.368 13.44C5.824 13.44 5.448 13.312 5.24 13.056C5.048 12.8 4.952 12.512 4.952 12.192C4.952 11.808 5.072 11.504 5.312 11.28C5.568 11.056 5.856 10.944 6.176 10.944H6.776C7.032 9.376 7.272 8.024 7.496 6.888C7.704 5.848 8.376 5.328 9.512 5.328C10.424 5.328 10.88 5.736 10.88 6.552C10.88 6.728 10.872 6.864 10.856 6.96L10.136 10.944C11 10.896 11.784 10.688 12.488 10.32C13.208 9.952 13.776 9.44 14.192 8.784C14.624 8.128 14.84 7.384 14.84 6.552C14.84 5.544 14.496 4.752 13.808 4.176C13.12 3.6 12.112 3.312 10.784 3.312C9.216 3.312 7.84 3.704 6.656 4.488C5.488 5.256 4.576 6.408 3.92 7.944C3.264 9.464 2.936 11.32 2.936 13.512C2.936 14.536 3.04 15.416 3.248 16.152C3.456 16.888 3.712 17.44 4.016 17.808C4.32 18.176 4.608 18.36 4.88 18.36C5.088 18.36 5.256 18.256 5.384 18.048C5.528 17.84 5.64 17.504 5.72 17.04L6.368 13.44ZM31.5044 15.648C31.7124 15.648 31.8724 15.744 31.9844 15.936C32.1124 16.128 32.1764 16.392 32.1764 16.728C32.1764 17.368 32.0244 17.864 31.7204 18.216C31.1284 18.936 30.2884 19.6 29.2004 20.208C28.1284 20.816 26.9764 21.12 25.7444 21.12C24.0644 21.12 22.7604 20.664 21.8324 19.752C20.9044 18.84 20.4404 17.592 20.4404 16.008C20.4404 14.904 20.6724 13.88 21.1364 12.936C21.6004 11.976 22.2404 11.216 23.0564 10.656C23.8884 10.096 24.8244 9.816 25.8644 9.816C26.7924 9.816 27.5364 10.096 28.0964 10.656C28.6564 11.2 28.9364 11.944 28.9364 12.888C28.9364 13.992 28.5364 14.944 27.7364 15.744C26.9524 16.528 25.6164 17.152 23.7284 17.616C24.1284 18.352 24.8884 18.72 26.0084 18.72C26.7284 18.72 27.5444 18.472 28.4564 17.976C29.3844 17.464 30.1844 16.8 30.8564 15.984C31.0484 15.76 31.2644 15.648 31.5044 15.648ZM25.4564 12.168C24.8644 12.168 24.3604 12.512 23.9444 13.2C23.5444 13.888 23.3444 14.72 23.3444 15.696V15.744C24.2884 15.52 25.0324 15.184 25.5764 14.736C26.1204 14.288 26.3924 13.768 26.3924 13.176C26.3924 12.872 26.3044 12.632 26.1284 12.456C25.9684 12.264 25.7444 12.168 25.4564 12.168ZM34.8063 21.12C33.2383 21.12 32.0143 20.68 31.1343 19.8C30.2703 18.904 29.8383 17.728 29.8383 16.272C29.8383 14.976 30.0943 13.84 30.6063 12.864C31.1183 11.888 31.7823 11.136 32.5983 10.608C33.4143 10.08 34.2703 9.816 35.1663 9.816C36.0463 9.816 36.7263 10.08 37.2063 10.608C37.7023 11.12 37.9503 11.784 37.9503 12.6C37.9503 13.272 37.7983 13.84 37.4943 14.304C37.2063 14.768 36.8223 15 36.3423 15C36.0383 15 35.7903 14.928 35.5983 14.784C35.4223 14.64 35.3343 14.44 35.3343 14.184C35.3343 14.072 35.3503 13.944 35.3823 13.8C35.4143 13.656 35.4383 13.552 35.4543 13.488C35.5343 13.248 35.5743 13.024 35.5743 12.816C35.5743 12.608 35.5183 12.448 35.4063 12.336C35.3103 12.224 35.1663 12.168 34.9743 12.168C34.6063 12.168 34.2623 12.336 33.9423 12.672C33.6223 12.992 33.3663 13.432 33.1743 13.992C32.9823 14.552 32.8863 15.168 32.8863 15.84C32.8863 17.696 33.6943 18.624 35.3103 18.624C35.9663 18.624 36.6703 18.408 37.4223 17.976C38.1903 17.528 38.9423 16.864 39.6783 15.984C39.8703 15.76 40.0863 15.648 40.3263 15.648C40.5343 15.648 40.6943 15.744 40.8063 15.936C40.9343 16.128 40.9983 16.392 40.9983 16.728C40.9983 17.336 40.8463 17.832 40.5423 18.216C39.7903 19.144 38.8863 19.864 37.8303 20.376C36.7903 20.872 35.7823 21.12 34.8063 21.12ZM42.2023 8.232C41.5303 8.232 41.0263 8.08 40.6903 7.776C40.3543 7.456 40.1863 7.016 40.1863 6.456C40.1863 5.896 40.4023 5.432 40.8343 5.064C41.2823 4.68 41.8343 4.488 42.4903 4.488C43.0823 4.488 43.5623 4.632 43.9303 4.92C44.2983 5.208 44.4823 5.616 44.4823 6.144C44.4823 6.784 44.2743 7.296 43.8583 7.68C43.4423 8.048 42.8903 8.232 42.2023 8.232ZM42.0103 21.12C40.9703 21.12 40.2103 20.752 39.7303 20.016C39.2663 19.28 39.0343 18.304 39.0343 17.088C39.0343 16.368 39.1223 15.448 39.2983 14.328C39.4903 13.192 39.7303 12.136 40.0183 11.16C40.1623 10.648 40.3543 10.296 40.5943 10.104C40.8343 9.912 41.2183 9.816 41.7463 9.816C42.5623 9.816 42.9703 10.088 42.9703 10.632C42.9703 11.032 42.8183 11.96 42.5143 13.416C42.1303 15.176 41.9383 16.368 41.9383 16.992C41.9383 17.472 42.0023 17.84 42.1303 18.096C42.2583 18.352 42.4743 18.48 42.7783 18.48C43.0663 18.48 43.4263 18.28 43.8583 17.88C44.2903 17.48 44.8663 16.848 45.5863 15.984C45.7783 15.76 45.9943 15.648 46.2343 15.648C46.4423 15.648 46.6023 15.744 46.7143 15.936C46.8423 16.128 46.9063 16.392 46.9063 16.728C46.9063 17.368 46.7543 17.864 46.4503 18.216C44.8663 20.152 43.3863 21.12 42.0103 21.12ZM57.7805 15.648C57.9885 15.648 58.1485 15.744 58.2605 15.936C58.3885 16.128 58.4525 16.392 58.4525 16.728C58.4525 17.368 58.3005 17.864 57.9965 18.216C57.3085 19.064 56.5645 19.76 55.7645 20.304C54.9805 20.848 54.0845 21.12 53.0765 21.12C52.2285 21.12 51.5405 20.816 51.0125 20.208C50.1005 20.8 49.1485 21.104 48.1565 21.12C47.9485 24.208 47.4765 26.784 46.7405 28.848C46.0045 30.928 44.9245 31.968 43.5005 31.968C42.6365 31.968 41.9965 31.656 41.5805 31.032C41.1645 30.408 40.9565 29.544 40.9565 28.44C40.9565 26.872 41.3165 25.04 42.0365 22.944C42.7565 20.864 43.8685 18.568 45.3725 16.056C45.3725 13.72 45.3565 12.096 45.3245 11.184C45.3085 10.72 45.4925 10.352 45.8765 10.08C46.2605 9.808 46.7405 9.672 47.3165 9.672C47.6525 9.672 47.8925 9.744 48.0365 9.888C48.1965 10.016 48.2845 10.28 48.3005 10.68C48.3005 11.08 48.3085 11.376 48.3245 11.568C48.8365 10.928 49.3405 10.472 49.8365 10.2C50.3325 9.912 50.8605 9.768 51.4205 9.768C52.3165 9.768 53.0445 10.128 53.6045 10.848C54.1805 11.568 54.4685 12.512 54.4685 13.68C54.4685 14.528 54.3325 15.352 54.0605 16.152C53.7885 16.952 53.4125 17.68 52.9325 18.336C53.2685 18.432 53.5485 18.48 53.7725 18.48C54.3005 18.48 54.8045 18.288 55.2845 17.904C55.7645 17.52 56.3805 16.88 57.1325 15.984C57.3245 15.76 57.5405 15.648 57.7805 15.648ZM48.2765 18.816C48.8525 18.688 49.3805 18.376 49.8605 17.88C50.3565 17.368 50.7485 16.744 51.0365 16.008C51.3245 15.256 51.4685 14.472 51.4685 13.656C51.4685 13.176 51.3725 12.816 51.1805 12.576C50.9885 12.32 50.7325 12.192 50.4125 12.192C49.8365 12.192 49.1405 12.8 48.3245 14.016C48.3085 14.72 48.3005 15.752 48.3005 17.112C48.3005 17.848 48.2925 18.416 48.2765 18.816ZM43.6925 29.616C44.1245 29.616 44.4845 28.672 44.7725 26.784C45.0605 24.912 45.2445 22.576 45.3245 19.776C44.6365 21.376 44.0925 22.904 43.6925 24.36C43.2925 25.816 43.0925 27.04 43.0925 28.032C43.0925 28.544 43.1565 28.936 43.2845 29.208C43.3965 29.48 43.5325 29.616 43.6925 29.616ZM67.2232 15.648C67.4312 15.648 67.5912 15.744 67.7032 15.936C67.8312 16.128 67.8952 16.392 67.8952 16.728C67.8952 17.368 67.7432 17.864 67.4392 18.216C66.8472 18.936 66.0072 19.6 64.9192 20.208C63.8472 20.816 62.6952 21.12 61.4632 21.12C59.7832 21.12 58.4792 20.664 57.5512 19.752C56.6232 18.84 56.1592 17.592 56.1592 16.008C56.1592 14.904 56.3912 13.88 56.8552 12.936C57.3192 11.976 57.9592 11.216 58.7752 10.656C59.6072 10.096 60.5432 9.816 61.5832 9.816C62.5112 9.816 63.2552 10.096 63.8152 10.656C64.3752 11.2 64.6552 11.944 64.6552 12.888C64.6552 13.992 64.2552 14.944 63.4552 15.744C62.6712 16.528 61.3352 17.152 59.4472 17.616C59.8472 18.352 60.6072 18.72 61.7272 18.72C62.4472 18.72 63.2632 18.472 64.1752 17.976C65.1032 17.464 65.9032 16.8 66.5752 15.984C66.7672 15.76 66.9832 15.648 67.2232 15.648ZM61.1752 12.168C60.5832 12.168 60.0792 12.512 59.6632 13.2C59.2632 13.888 59.0632 14.72 59.0632 15.696V15.744C60.0072 15.52 60.7512 15.184 61.2952 14.736C61.8392 14.288 62.1112 13.768 62.1112 13.176C62.1112 12.872 62.0232 12.632 61.8472 12.456C61.6872 12.264 61.4632 12.168 61.1752 12.168ZM70.4051 21.648C69.5731 21.648 68.9331 21.456 68.4851 21.072C68.0531 20.688 67.8371 20.256 67.8371 19.776C67.8371 19.36 67.9891 19 68.2931 18.696C68.5971 18.392 69.0451 18.24 69.6371 18.24C69.8451 18.24 70.0851 18.264 70.3571 18.312C70.6451 18.344 70.8611 18.368 71.0051 18.384C70.9891 17.968 70.8931 17.576 70.7171 17.208C70.5571 16.84 70.3491 16.488 70.0931 16.152C69.8371 15.8 69.5971 15.496 69.3731 15.24C68.8771 16.184 68.3811 16.968 67.8851 17.592C67.4051 18.216 66.8771 18.808 66.3011 19.368C66.0131 19.656 65.7091 19.8 65.3891 19.8C65.1331 19.8 64.9251 19.712 64.7651 19.536C64.6051 19.344 64.5251 19.112 64.5251 18.84C64.5251 18.52 64.6371 18.224 64.8611 17.952L65.1731 17.568C66.0531 16.48 66.7171 15.584 67.1651 14.88C67.4531 14.416 67.7411 13.864 68.0291 13.224C68.3331 12.584 68.7251 11.712 69.2051 10.608C69.5091 9.904 70.1411 9.552 71.1011 9.552C71.5491 9.552 71.8611 9.592 72.0371 9.672C72.2131 9.752 72.3011 9.88 72.3011 10.056C72.3011 10.152 72.2691 10.304 72.2051 10.512C72.1411 10.72 72.0531 10.928 71.9411 11.136C71.6531 11.712 71.5091 12.2 71.5091 12.6C71.5091 12.84 71.5891 13.104 71.7491 13.392C71.9251 13.68 72.1891 14.04 72.5411 14.472C73.0531 15.144 73.4371 15.72 73.6931 16.2C73.9651 16.664 74.1011 17.176 74.1011 17.736C74.1011 18.408 73.9411 19.048 73.6211 19.656C73.3171 20.248 72.8851 20.728 72.3251 21.096C71.7651 21.464 71.1251 21.648 70.4051 21.648ZM109.105 21.12C108.401 21.12 107.865 20.928 107.497 20.544C107.145 20.16 106.969 19.656 106.969 19.032C106.969 18.312 107.169 17.736 107.569 17.304C107.985 16.872 108.561 16.656 109.297 16.656C110.001 16.656 110.529 16.832 110.881 17.184C111.249 17.52 111.433 18.024 111.433 18.696C111.433 19.432 111.225 20.024 110.809 20.472C110.393 20.904 109.825 21.12 109.105 21.12ZM117.728 21.12C116.16 21.12 114.936 20.68 114.056 19.8C113.192 18.904 112.76 17.728 112.76 16.272C112.76 14.976 113.016 13.84 113.528 12.864C114.04 11.888 114.704 11.136 115.52 10.608C116.336 10.08 117.192 9.816 118.088 9.816C118.968 9.816 119.648 10.08 120.128 10.608C120.624 11.12 120.872 11.784 120.872 12.6C120.872 13.272 120.72 13.84 120.416 14.304C120.128 14.768 119.744 15 119.264 15C118.96 15 118.712 14.928 118.52 14.784C118.344 14.64 118.256 14.44 118.256 14.184C118.256 14.072 118.272 13.944 118.304 13.8C118.336 13.656 118.36 13.552 118.376 13.488C118.456 13.248 118.496 13.024 118.496 12.816C118.496 12.608 118.44 12.448 118.328 12.336C118.232 12.224 118.088 12.168 117.896 12.168C117.528 12.168 117.184 12.336 116.864 12.672C116.544 12.992 116.288 13.432 116.096 13.992C115.904 14.552 115.808 15.168 115.808 15.84C115.808 17.696 116.616 18.624 118.232 18.624C118.888 18.624 119.592 18.408 120.344 17.976C121.112 17.528 121.864 16.864 122.6 15.984C122.792 15.76 123.008 15.648 123.248 15.648C123.456 15.648 123.616 15.744 123.728 15.936C123.856 16.128 123.92 16.392 123.92 16.728C123.92 17.336 123.768 17.832 123.464 18.216C122.712 19.144 121.808 19.864 120.752 20.376C119.712 20.872 118.704 21.12 117.728 21.12ZM134.22 13.632C134.428 13.632 134.588 13.736 134.7 13.944C134.812 14.152 134.868 14.416 134.868 14.736C134.868 15.504 134.636 15.96 134.172 16.104C133.212 16.44 132.156 16.632 131.004 16.68C130.7 18.024 130.1 19.104 129.204 19.92C128.308 20.72 127.292 21.12 126.156 21.12C125.196 21.12 124.372 20.888 123.684 20.424C123.012 19.96 122.5 19.344 122.148 18.576C121.796 17.808 121.62 16.976 121.62 16.08C121.62 14.864 121.852 13.784 122.316 12.84C122.78 11.88 123.42 11.136 124.236 10.608C125.052 10.064 125.956 9.792 126.948 9.792C128.164 9.792 129.14 10.216 129.876 11.064C130.628 11.896 131.068 12.928 131.196 14.16C131.948 14.112 132.844 13.952 133.884 13.68C134.012 13.648 134.124 13.632 134.22 13.632ZM126.348 18.576C126.86 18.576 127.3 18.368 127.668 17.952C128.052 17.536 128.308 16.936 128.436 16.152C127.94 15.816 127.556 15.376 127.284 14.832C127.028 14.288 126.9 13.712 126.9 13.104C126.9 12.848 126.924 12.592 126.972 12.336H126.852C126.212 12.336 125.676 12.648 125.244 13.272C124.828 13.88 124.62 14.744 124.62 15.864C124.62 16.744 124.788 17.416 125.124 17.88C125.476 18.344 125.884 18.576 126.348 18.576ZM134.512 21.12C133.904 21.12 133.472 20.8 133.216 20.16C132.976 19.52 132.856 18.496 132.856 17.088C132.856 15.008 133.152 13.032 133.744 11.16C133.888 10.696 134.12 10.36 134.44 10.152C134.776 9.928 135.24 9.816 135.832 9.816C136.152 9.816 136.376 9.856 136.504 9.936C136.632 10.016 136.696 10.168 136.696 10.392C136.696 10.648 136.576 11.224 136.336 12.12C136.176 12.76 136.048 13.32 135.952 13.8C135.856 14.264 135.776 14.848 135.712 15.552C136.144 14.304 136.656 13.248 137.248 12.384C137.856 11.52 138.472 10.88 139.096 10.464C139.736 10.032 140.336 9.816 140.896 9.816C141.456 9.816 141.848 9.944 142.072 10.2C142.312 10.456 142.432 10.848 142.432 11.376C142.432 11.888 142.28 12.816 141.976 14.16C141.848 14.736 141.76 15.168 141.712 15.456C142.24 14.112 142.824 13.016 143.464 12.168C144.12 11.32 144.76 10.72 145.384 10.368C146.008 10 146.584 9.816 147.112 9.816C147.624 9.816 148.008 9.952 148.264 10.224C148.536 10.48 148.672 10.864 148.672 11.376C148.672 11.792 148.584 12.576 148.408 13.728C148.248 14.704 148.12 15.632 148.024 16.512C147.928 17.376 147.88 18.344 147.88 19.416C147.88 20.024 147.752 20.464 147.496 20.736C147.256 20.992 146.856 21.12 146.296 21.12C145.768 21.12 145.384 20.984 145.144 20.712C144.904 20.44 144.784 20.032 144.784 19.488C144.784 18.848 144.896 17.792 145.12 16.32C145.312 15.04 145.408 14.224 145.408 13.872C145.408 13.616 145.32 13.488 145.144 13.488C144.936 13.488 144.64 13.76 144.256 14.304C143.872 14.832 143.488 15.536 143.104 16.416C142.72 17.296 142.408 18.224 142.168 19.2C141.992 19.968 141.784 20.48 141.544 20.736C141.32 20.992 140.952 21.12 140.44 21.12C139.912 21.12 139.512 20.872 139.24 20.376C138.984 19.864 138.856 19.248 138.856 18.528C138.856 17.92 138.936 17.04 139.096 15.888C139.224 14.864 139.288 14.192 139.288 13.872C139.288 13.616 139.2 13.488 139.024 13.488C138.784 13.488 138.48 13.776 138.112 14.352C137.744 14.928 137.384 15.664 137.032 16.56C136.696 17.456 136.424 18.336 136.216 19.2C136.04 19.952 135.832 20.464 135.592 20.736C135.368 20.992 135.008 21.12 134.512 21.12Z" fill="#1A3263"/>
<path d="M84.8904 13.68C84.8904 14.944 84.5944 16.144 84.0024 17.28C83.4264 18.4 82.6504 19.312 81.6744 20.016C80.7144 20.72 79.6824 21.088 78.5784 21.12C78.3704 24.208 77.8984 26.784 77.1624 28.848C76.4264 30.928 75.3464 31.968 73.9224 31.968C73.0584 31.968 72.4184 31.656 72.0024 31.032C71.5864 30.408 71.3784 29.544 71.3784 28.44C71.3784 26.872 71.7384 25.04 72.4584 22.944C73.1784 20.864 74.2904 18.568 75.7944 16.056C75.7944 13.72 75.7784 12.096 75.7464 11.184C75.7304 10.72 75.9144 10.352 76.2984 10.08C76.6824 9.808 77.1624 9.672 77.7384 9.672C78.0744 9.672 78.3144 9.744 78.4584 9.888C78.6184 10.016 78.7064 10.28 78.7224 10.68C78.7224 11.08 78.7304 11.376 78.7464 11.568C79.2584 10.928 79.7624 10.472 80.2584 10.2C80.7544 9.912 81.2824 9.768 81.8424 9.768C82.7384 9.768 83.4664 10.128 84.0264 10.848C84.6024 11.568 84.8904 12.512 84.8904 13.68ZM78.6984 18.816C79.2744 18.688 79.8024 18.376 80.2824 17.88C80.7784 17.368 81.1704 16.744 81.4584 16.008C81.7464 15.256 81.8904 14.472 81.8904 13.656C81.8904 13.176 81.7944 12.816 81.6024 12.576C81.4104 12.32 81.1544 12.192 80.8344 12.192C80.2584 12.192 79.5624 12.8 78.7464 14.016C78.7304 14.72 78.7224 15.752 78.7224 17.112C78.7224 17.848 78.7144 18.416 78.6984 18.816ZM74.1144 29.616C74.5464 29.616 74.9064 28.672 75.1944 26.784C75.4824 24.912 75.6664 22.576 75.7464 19.776C75.0584 21.376 74.5144 22.904 74.1144 24.36C73.7144 25.816 73.5144 27.04 73.5144 28.032C73.5144 28.544 73.5784 28.936 73.7064 29.208C73.8184 29.48 73.9544 29.616 74.1144 29.616ZM90.7019 21.648C89.8699 21.648 89.2299 21.456 88.7819 21.072C88.3499 20.688 88.1339 20.256 88.1339 19.776C88.1339 19.36 88.2859 19 88.5899 18.696C88.8939 18.392 89.3419 18.24 89.9339 18.24C90.1419 18.24 90.3819 18.264 90.6539 18.312C90.9419 18.344 91.1579 18.368 91.3019 18.384C91.2859 17.968 91.1899 17.576 91.0139 17.208C90.8539 16.84 90.6459 16.488 90.3899 16.152C90.1339 15.8 89.8939 15.496 89.6699 15.24C89.1739 16.184 88.6779 16.968 88.1819 17.592C87.7019 18.216 87.1739 18.808 86.5979 19.368C86.3099 19.656 86.0059 19.8 85.6859 19.8C85.4299 19.8 85.2219 19.712 85.0619 19.536C84.9019 19.344 84.8219 19.112 84.8219 18.84C84.8219 18.52 84.9339 18.224 85.1579 17.952L85.4699 17.568C86.3499 16.48 87.0139 15.584 87.4619 14.88C87.7339 14.416 88.0539 13.8 88.4219 13.032C88.7899 12.248 89.1499 11.44 89.5019 10.608C89.8059 9.904 90.4379 9.552 91.3979 9.552C91.8459 9.552 92.1579 9.592 92.3339 9.672C92.5099 9.752 92.5979 9.88 92.5979 10.056C92.5979 10.152 92.5659 10.304 92.5019 10.512C92.4379 10.72 92.3499 10.928 92.2379 11.136C91.9499 11.712 91.8059 12.2 91.8059 12.6C91.8059 12.84 91.8859 13.104 92.0459 13.392C92.2219 13.68 92.4859 14.04 92.8379 14.472C93.3499 15.144 93.7339 15.72 93.9899 16.2C94.2619 16.664 94.3979 17.176 94.3979 17.736C94.3979 17.896 94.3819 18.12 94.3499 18.408C95.1339 18.104 96.0539 17.296 97.1099 15.984C97.3019 15.76 97.5179 15.648 97.7579 15.648C97.9659 15.648 98.1259 15.744 98.2379 15.936C98.3659 16.128 98.4299 16.392 98.4299 16.728C98.4299 17.336 98.2779 17.832 97.9739 18.216C97.1739 19.208 96.4059 19.888 95.6699 20.256C94.9499 20.608 94.0539 20.8 92.9819 20.832C92.3419 21.376 91.5819 21.648 90.7019 21.648ZM105.984 13.68C105.984 14.944 105.688 16.144 105.096 17.28C104.52 18.4 103.744 19.312 102.768 20.016C101.808 20.72 100.776 21.088 99.6721 21.12C99.4641 24.208 98.9921 26.784 98.2561 28.848C97.5201 30.928 96.4401 31.968 95.0161 31.968C94.1521 31.968 93.5121 31.656 93.0961 31.032C92.6801 30.408 92.4721 29.544 92.4721 28.44C92.4721 26.872 92.8321 25.04 93.5521 22.944C94.2721 20.864 95.3841 18.568 96.8881 16.056C96.8881 13.72 96.8721 12.096 96.8401 11.184C96.8241 10.72 97.0081 10.352 97.3921 10.08C97.7761 9.808 98.2561 9.672 98.8321 9.672C99.1681 9.672 99.4081 9.744 99.5521 9.888C99.7121 10.016 99.8001 10.28 99.8161 10.68C99.8161 11.08 99.8241 11.376 99.8401 11.568C100.352 10.928 100.856 10.472 101.352 10.2C101.848 9.912 102.376 9.768 102.936 9.768C103.832 9.768 104.56 10.128 105.12 10.848C105.696 11.568 105.984 12.512 105.984 13.68ZM99.7921 18.816C100.368 18.688 100.896 18.376 101.376 17.88C101.872 17.368 102.264 16.744 102.552 16.008C102.84 15.256 102.984 14.472 102.984 13.656C102.984 13.176 102.888 12.816 102.696 12.576C102.504 12.32 102.248 12.192 101.928 12.192C101.352 12.192 100.656 12.8 99.8401 14.016C99.8241 14.72 99.8161 15.752 99.8161 17.112C99.8161 17.848 99.8081 18.416 99.7921 18.816ZM95.2081 29.616C95.6401 29.616 96.0001 28.672 96.2881 26.784C96.5761 24.912 96.7601 22.576 96.8401 19.776C96.1521 21.376 95.6081 22.904 95.2081 24.36C94.8081 25.816 94.6081 27.04 94.6081 28.032C94.6081 28.544 94.6721 28.936 94.8001 29.208C94.9121 29.48 95.0481 29.616 95.2081 29.616Z" fill="#7C320C"/>
</svg>
